<svg width="736" height="9" viewBox="0 0 736 9" fill="none" xmlns="http://www.w3.org/2000/svg">
<path d="M1 7.16835C2.02636 7.16835 6.14733 6.89395 22.3669 6.47819C56.5094 5.603 80.8069 6.06243 89.0489 5.64667C105.431 4.82027 118.129 5.23091 127.91 4.81514C164.162 3.27426 172.526 3.84226 182.898 3.1521C191.59 2.57374 199.507 2.73633 224.435 2.32057C246.787 1.94776 288.877 2.17921 311.582 2.31641C336.349 2.46608 340.506 3.28514 354.65 3.7009C388.757 4.70351 413.595 3.56786 419.015 3.1521C433.174 2.06582 442.582 2.17921 455.792 1.48905C483.443 0.0444521 498.005 2.17921 508.704 3.00658C522.367 4.06312 535.918 4.39107 549.113 4.81099C555.115 5.00201 582.353 5.50531 620.445 5.64251C635.463 5.6966 654.478 6.33683 682.197 6.47403C700.244 7.16836 706.993 7.44276 713.431 7.85852C718.329 7.99988 726.54 7.99988 735 7.99988" stroke="white" stroke-width="2" stroke-linecap="round"/>
</svg>
